# xmcd
#
# Track frame offsets:
#	182
#	22172
#	45420
#	59672
#	76327
#	94920
#	109340
#	134002
#	153137
#	173670
#	198000
#
# Disc length: 2989 seconds
#
# Revision: 0
# Processed by: cddbd v1.5.1PL2 Copyright (c) Steve Scherf et al.
# Submitted via: audiograbber 1.83.01
#
DISCID=8e0bab0b
DTITLE=Sheryl Crow - Tuesday Night Music Club
DYEAR=1993
DGENRE=Country
TTITLE0=Run, Baby, Run
TTITLE1=Leaving Las Vegas
TTITLE2=Strong Enough
TTITLE3=Can't Cry Anymore
TTITLE4=Solidify
TTITLE5=The Na-Na Song
TTITLE6=No One Said It Would Be Easy
TTITLE7=What I Can Do For You
TTITLE8=All I Wanna Do
TTITLE9=We Do What  We Can
TTITLE10=I Shall Believe
EXTD=
EXTT0=
EXTT1=
EXTT2=
EXTT3=
EXTT4=
EXTT5=
EXTT6=
EXTT7=
EXTT8=
EXTT9=
EXTT10=
PLAYORDER=
